<?xml version="1.0" encoding="UTF-8" standalone="no"?>
<!-- Created with Inkscape (http://www.inkscape.org/) -->

<svg
   xmlns:dc="http://purl.org/dc/elements/1.1/"
   xmlns:cc="http://creativecommons.org/ns#"
   xmlns:rdf="http://www.w3.org/1999/02/22-rdf-syntax-ns#"
   xmlns:svg="http://www.w3.org/2000/svg"
   xmlns="http://www.w3.org/2000/svg"
   xmlns:sodipodi="http://sodipodi.sourceforge.net/DTD/sodipodi-0.dtd"
   xmlns:inkscape="http://www.inkscape.org/namespaces/inkscape"
   width="76.200211mm"
   height="31.28401mm"
   viewBox="0 0 76.200215 31.28401"
   version="1.1"
   id="svg60"
   inkscape:version="0.92.5 (2060ec1f9f, 2020-04-08)"
   sodipodi:docname="librosa_logo_text.svg"
   inkscape:export-filename="/home/bmcfee/git/librosa_media/logo/librosa_logo_simpler-text-rotated.png"
   inkscape:export-xdpi="90.130859"
   inkscape:export-ydpi="90.130859">
  <defs
     id="defs54">
    <inkscape:path-effect
       effect="copy_rotate"
       starting_point="75.8296,238.24069"
       origin="61.321447,237.22618"
       id="path-effect846"
       is_visible="true"
       copies_to_360="true"
       fuse_paths="false"
       starting_angle="-4.0000044"
       rotation_angle="60"
       num_copies="6" />
    <inkscape:path-effect
       effect="copy_rotate"
       starting_point="75.079604,237.22618"
       origin="61.321447,237.22618"
       id="path-effect844"
       is_visible="true"
       copies_to_360="true"
       fuse_paths="false"
       starting_angle="0"
       rotation_angle="60"
       num_copies="6" />
    <inkscape:path-effect
       effect="powerstroke"
       id="path-effect840"
       is_visible="true"
       offset_points="31,0.33051223"
       sort_points="true"
       interpolator_type="CubicBezierFit"
       interpolator_beta="0.2"
       start_linecap_type="butt"
       linejoin_type="extrp_arc"
       miter_limit="4"
       end_linecap_type="butt" />
    <inkscape:path-effect
       effect="copy_rotate"
       starting_point="67.13018,237.14366"
       origin="60.938111,237.13401"
       id="path-effect836"
       is_visible="true"
       copies_to_360="true"
       fuse_paths="false"
       starting_angle="-0.089292258"
       rotation_angle="51.428571"
       num_copies="7" />
  </defs>
  <sodipodi:namedview
     id="base"
     pagecolor="#ffffff"
     bordercolor="#666666"
     borderopacity="1.0"
     inkscape:pageopacity="0.0"
     inkscape:pageshadow="2"
     inkscape:zoom="1.4"
     inkscape:cx="-16.576734"
     inkscape:cy="138.57592"
     inkscape:document-units="mm"
     inkscape:current-layer="layer1"
     showgrid="false"
     inkscape:pagecheckerboard="true"
     showguides="false"
     inkscape:guide-bbox="true"
     inkscape:snap-object-midpoints="true"
     fit-margin-top="0"
     fit-margin-left="0"
     fit-margin-right="0"
     fit-margin-bottom="0"
     inkscape:window-width="1920"
     inkscape:window-height="1053"
     inkscape:window-x="0"
     inkscape:window-y="27"
     inkscape:window-maximized="1">
    <inkscape:grid
       type="axonomgrid"
       id="grid62"
       units="mm"
       empspacing="3"
       spacingy="1"
       gridanglex="30"
       gridanglez="30"
       originx="-30.275621"
       originy="-28.52528" />
    <sodipodi:guide
       position="30.346163,31.474724"
       orientation="0,1"
       id="guide68"
       inkscape:locked="false" />
    <sodipodi:guide
       position="29.480137,31.474724"
       orientation="1,0"
       id="guide149"
       inkscape:locked="false" />
  </sodipodi:namedview>
  <metadata
     id="metadata57">
    <rdf:RDF>
      <cc:Work
         rdf:about="">
        <dc:format>image/svg+xml</dc:format>
        <dc:type
           rdf:resource="http://purl.org/dc/dcmitype/StillImage" />
        <dc:title></dc:title>
      </cc:Work>
    </rdf:RDF>
  </metadata>
  <g
     inkscape:label="Layer 1"
     inkscape:groupmode="layer"
     id="layer1"
     transform="translate(-30.275616,-237.19073)">
    <g
       aria-label="librosa"
       style="font-style:normal;font-variant:normal;font-weight:normal;font-stretch:normal;font-size:15.95813751px;line-height:1.25;font-family:Quicksand;-inkscape-font-specification:Quicksand;letter-spacing:0px;word-spacing:0px;fill:#4d02a2;fill-opacity:1;stroke:none;stroke-width:0.13298447"
       id="text832">
      <path
         d="m 64.432994,258.96332 v -11.68808 l 1.480491,-0.70129 h 0.07792 v 11.68809 l -1.480492,0.70128 z"
         style="font-style:normal;font-variant:normal;font-weight:normal;font-stretch:normal;font-size:15.95813751px;font-family:'Nova Slim';-inkscape-font-specification:'Nova Slim';text-align:end;letter-spacing:-0.79790688px;text-anchor:end;fill:#4d02a2;stroke-width:0.13298447"
         id="path4533" />
      <path
         d="m 68.427204,248.35833 q -0.272722,-0.28051 -0.272722,-0.67012 0,-0.39739 0.272722,-0.6779 0.272722,-0.28052 0.662325,-0.28052 0.389603,0 0.662325,0.28052 0.272722,0.28051 0.272722,0.6779 0,0.38961 -0.272722,0.67012 -0.272722,0.28052 -0.662325,0.28052 -0.389603,0 -0.662325,-0.28052 z m -0.116881,10.60499 v -8.49334 l 1.480491,-0.70129 h 0.07792 v 8.49335 l -1.480492,0.70128 z"
         style="font-style:normal;font-variant:normal;font-weight:normal;font-stretch:normal;font-size:15.95813751px;font-family:'Nova Slim';-inkscape-font-specification:'Nova Slim';text-align:end;letter-spacing:-0.79790688px;text-anchor:end;fill:#4d02a2;stroke-width:0.13298447"
         id="path4535" />
      <path
         d="m 73.746063,256.22052 q 0,0.89609 0.483108,1.31686 0.4909,0.41298 1.192185,0.41298 0.701286,0 1.184393,-0.41298 0.4909,-0.42077 0.4909,-1.31686 v -3.70902 q 0,-0.89609 -0.4909,-1.30907 -0.483107,-0.42077 -1.184393,-0.42077 -0.701285,0 -1.192185,0.42077 -0.483108,0.41298 -0.483108,1.30907 z m -1.558411,-0.52986 v -8.41542 l 1.480491,-0.70129 h 0.07792 v 4.01291 q 0.592197,-0.66232 1.675293,-0.66232 1.348026,0 2.267489,0.8805 0.966216,0.93505 0.966216,2.23632 v 2.6493 q 0,1.28569 -0.966216,2.23632 -0.903878,0.8805 -2.267489,0.8805 -1.348026,0 -2.267489,-0.8805 -0.966215,-0.93505 -0.966215,-2.23632 z"
         style="font-style:normal;font-variant:normal;font-weight:normal;font-stretch:normal;font-size:15.95813751px;font-family:'Nova Slim';-inkscape-font-specification:'Nova Slim';text-align:end;letter-spacing:-0.79790688px;text-anchor:end;fill:#4d02a2;stroke-width:0.13298447"
         id="path4537" />
      <path
         d="m 80.194771,258.96332 v -5.92196 q 0,-1.28569 0.966216,-2.23632 0.903879,-0.8805 2.267489,-0.8805 h 1.051928 v 0.0779 l -0.374019,0.7792 h -0.677909 q -0.701285,0 -1.192185,0.42077 -0.483108,0.41298 -0.483108,1.30907 v 5.75054 l -1.480491,0.70128 z"
         style="font-style:normal;font-variant:normal;font-weight:normal;font-stretch:normal;font-family:'Nova Slim';-inkscape-font-specification:'Nova Slim';text-align:end;letter-spacing:-0.79790688px;text-anchor:end;fill:#aa2396;stroke-width:0.13298447"
         id="path4539" />
      <path
         d="m 85.007147,255.69066 v -2.6493 q 0,-1.28569 0.966216,-2.23632 0.903879,-0.8805 2.267489,-0.8805 1.348026,0 2.267489,0.8805 0.966216,0.93505 0.966216,2.23632 v 2.6493 q 0,1.28569 -0.966216,2.23632 -0.903879,0.8805 -2.267489,0.8805 -1.348026,0 -2.267489,-0.8805 -0.966216,-0.93505 -0.966216,-2.23632 z m 1.558412,0.52986 q 0,0.89609 0.483108,1.31686 0.4909,0.41298 1.192185,0.41298 0.701285,0 1.184393,-0.41298 0.4909,-0.42077 0.4909,-1.31686 v -3.70902 q 0,-0.89609 -0.4909,-1.30907 -0.483108,-0.42077 -1.184393,-0.42077 -0.701285,0 -1.192185,0.42077 -0.483108,0.41298 -0.483108,1.30907 z"
         style="font-style:normal;font-variant:normal;font-weight:normal;font-stretch:normal;font-family:'Nova Slim';-inkscape-font-specification:'Nova Slim';text-align:end;letter-spacing:-0.79790688px;text-anchor:end;fill:#aa2396;stroke-width:0.13298447"
         id="path4541" />
      <path
         d="m 92.780506,255.90104 1.480491,-0.70128 h 0.07792 v 0.99738 q 0,0.87271 0.506483,1.32465 0.483108,0.42857 1.168809,0.42857 0.79479,0 1.238938,-0.50649 0.467523,-0.52207 0.467523,-1.50386 0,-0.89609 -0.498691,-1.28569 -0.428564,-0.33506 -1.215562,-0.33506 -1.503867,0 -2.244113,-0.59999 -0.654533,-0.52986 -0.654533,-1.44932 0,-1.0831 0.989592,-1.79218 0.771414,-0.55323 1.916846,-0.55323 1.098681,0 1.909055,0.6857 0.623365,0.53765 0.771414,1.24673 l -1.480491,0.70128 h -0.07792 v -0.59999 q 0,-0.3896 -0.233762,-0.69349 -0.374019,-0.48311 -1.067512,-0.48311 -0.553236,0 -0.903879,0.34285 -0.34285,0.35065 -0.34285,1.09868 0,0.787 0.420771,1.07531 0.233762,0.16363 0.997383,0.16363 1.651917,0 2.477875,0.69349 0.763622,0.63895 0.763622,1.84672 0,1.01297 -0.896087,1.93243 -0.849334,0.87271 -2.337618,0.87271 -1.348026,0 -2.267489,-0.74803 -0.966215,-0.787 -0.966215,-2.15841 z"
         style="font-style:normal;font-variant:normal;font-weight:normal;font-stretch:normal;font-family:'Nova Slim';-inkscape-font-specification:'Nova Slim';text-align:end;letter-spacing:-0.79790688px;text-anchor:end;fill:#aa2396;stroke-width:0.13298447"
         id="path4543" />
      <path
         d="m 106.47583,258.26204 -1.48049,0.70128 h -0.0779 v -0.81816 q -0.62337,0.66232 -1.67529,0.66232 -1.45712,0 -2.26749,-0.8805 -0.81038,-0.8805 -0.81038,-2.08048 0,-1.24673 0.88051,-2.11944 0.84933,-0.84154 2.19736,-0.84154 0.95842,0 1.67529,0.66232 0,-1.37919 -0.48311,-2.07268 -0.48311,-0.6935 -1.19218,-0.6935 h -1.89347 v -0.0779 l 0.36622,-0.7792 h 1.52725 q 1.36361,0 2.26749,0.8805 0.96621,0.94284 0.96621,2.23632 z m -4.78432,-2.41554 q 0,1.21556 0.42077,1.6675 0.40518,0.43636 1.13764,0.43636 0.7792,0 1.18439,-0.44415 0.44415,-0.48311 0.44415,-1.69867 0,-1.13764 -0.47532,-1.62075 -0.46752,-0.44415 -1.16101,-0.44415 -0.72467,0 -1.13764,0.45974 -0.41298,0.45973 -0.41298,1.64412 z"
         style="font-style:normal;font-variant:normal;font-weight:normal;font-stretch:normal;font-family:'Nova Slim';-inkscape-font-specification:'Nova Slim';text-align:end;letter-spacing:-0.79790688px;text-anchor:end;fill:#aa2396;stroke-width:0.13298447"
         id="path4545" />
    </g>
    <g
       id="g48"
       transform="matrix(0.45519613,0.21312399,-0.21312399,0.45519613,69.236377,131.77922)">
      <path
         inkscape:connector-curvature="0"
         id="path133"
         d="m 78.486936,215.46838 c -1.304502,-2.4359 -3.416049,-5.50925 -4.922371,-7.18569 -1.325642,-1.46469 -2.375823,-2.25605 -3.516507,-2.67732 -1.421927,-0.5244 -2.467816,-0.48415 -6.516009,0.23239 -1.909096,0.3446 -3.820204,0.63692 -4.250743,0.65657 -0.78443,0.0302 -2.426272,-0.20541 -3.671067,-0.53025 -0.616304,-0.16419 -0.668599,-0.16217 -1.130712,0.1575 -0.453504,0.30397 -0.548491,0.47707 -1.171571,2.37721 -0.78113,2.35602 -1.840913,4.43626 -3.224042,6.3595 -1.634061,2.28719 -1.74479,2.45165 -1.68185,2.4862 0.09816,0.0636 1.578855,-1.16061 2.421925,-1.9879 1.59067,-1.57386 3.045965,-3.70321 3.997123,-5.88402 l 0.598012,-1.3508 0.499503,0.17183 c 2.469775,0.8536 6.010489,0.80063 9.14235,-0.11169 1.657313,-0.48279 3.242471,-0.75947 3.926335,-0.68106 1.027545,0.12373 2.827978,1.35755 4.559699,3.12698 0.811544,0.83445 2.676134,3.01464 4.46761,5.21616 1.131715,1.38896 1.282459,1.54336 1.158221,1.11683 -0.07815,-0.26809 -0.393672,-0.94294 -0.685926,-1.49239 z m -27.425542,-3.98684 c -2.76181,-0.0882 -6.47919,0.20375 -8.684187,0.67004 -1.931271,0.41571 -3.141708,0.92951 -4.076881,1.70673 -1.165107,0.96922 -1.653191,1.89511 -3.056745,5.75923 -0.656122,1.82562 -1.358517,3.62684 -1.556766,4.00953 -0.366061,0.69443 -1.391034,1.9985 -2.294748,2.91411 -0.450346,0.45164 -0.474772,0.49791 -0.428949,1.05798 0.03648,0.54473 0.138908,0.71354 1.472935,2.20321 1.649803,1.85448 2.921457,3.81242 3.895471,5.97185 1.163728,2.55874 1.250795,2.73686 1.31218,2.69962 0.1044,-0.0529 -0.215679,-1.94762 -0.510604,-3.09139 -0.567671,-2.16449 -1.684095,-4.48949 -3.097142,-6.40362 l -0.870829,-1.1933 0.39855,-0.34668 c 1.974117,-1.7121 3.698606,-4.80492 4.474444,-7.97335 0.410542,-1.67667 0.963508,-3.18779 1.373354,-3.74083 0.620926,-0.82802 2.589654,-1.77033 4.987889,-2.38533 1.128421,-0.28559 3.948819,-0.81028 6.751133,-1.26097 1.768729,-0.28562 1.977817,-0.33898 1.546317,-0.44464 -0.271245,-0.0664 -1.013448,-0.13055 -1.635408,-0.15216 z m -17.16549,21.75779 c -1.457301,2.34768 -3.063145,5.71302 -3.761815,7.85574 -0.605626,1.88038 -0.765877,3.18555 -0.560374,4.38405 0.256817,1.49362 0.814626,2.37926 3.459269,5.52683 1.25297,1.48103 2.461679,2.98994 2.693967,3.35297 0.418369,0.66424 1.035244,2.20391 1.376325,3.44436 0.165958,0.61583 0.193816,0.66012 0.701762,0.90047 0.489999,0.24076 0.6874,0.23648 2.644508,-0.17399 2.430924,-0.50152 4.762368,-0.62385 7.11951,-0.38765 2.797796,0.27155 2.995586,0.28521 2.994031,0.21343 0.0064,-0.11682 -1.794532,-0.78703 -2.932529,-1.1035 -2.158334,-0.59065 -4.73006,-0.78628 -7.094265,-0.5196 l -1.468842,0.15751 -0.100958,-0.5185 c -0.495665,-2.56567 -2.311887,-5.60554 -4.667905,-7.86166 -1.246772,-1.19388 -2.278958,-2.42833 -2.55298,-3.05977 -0.40662,-0.95176 -0.238326,-3.12787 0.428191,-5.51231 0.316874,-1.12004 1.272681,-3.82492 2.283528,-6.47715 0.637007,-1.67456 0.695351,-1.88231 0.38809,-1.56146 -0.193095,0.20173 -0.619775,0.81241 -0.949479,1.34023 z m 10.260054,25.74465 c 1.304502,2.4359 3.416049,5.50925 4.922371,7.18569 1.325642,1.46469 2.375823,2.25605 3.516507,2.67732 1.421927,0.5244 2.467816,0.48415 6.516009,-0.23239 1.909096,-0.3446 3.820204,-0.63692 4.250743,-0.65657 0.78443,-0.0302 2.426272,0.20541 3.671067,0.53025 0.616304,0.16419 0.668599,0.16217 1.130712,-0.1575 0.453504,-0.30397 0.548491,-0.47707 1.171571,-2.37721 0.78113,-2.35602 1.840913,-4.43626 3.224042,-6.3595 1.634061,-2.28719 1.74479,-2.45165 1.68185,-2.4862 -0.09816,-0.0636 -1.578855,1.16061 -2.421925,1.9879 -1.59067,1.57386 -3.045965,3.70321 -3.997123,5.88402 l -0.598012,1.3508 -0.499503,-0.17183 c -2.469775,-0.8536 -6.010489,-0.80063 -9.14235,0.11169 -1.657313,0.48279 -3.242471,0.75947 -3.926335,0.68106 -1.027545,-0.12373 -2.827978,-1.35755 -4.559699,-3.12698 -0.811544,-0.83445 -2.676134,-3.01464 -4.46761,-5.21616 -1.131715,-1.38896 -1.282459,-1.54336 -1.158221,-1.11683 0.07815,0.26809 0.393672,0.94294 0.685926,1.49239 z m 27.425542,3.98684 c 2.76181,0.0882 6.47919,-0.20375 8.684187,-0.67004 1.931271,-0.41571 3.141708,-0.92951 4.076881,-1.70673 1.165107,-0.96922 1.653191,-1.89511 3.056745,-5.75923 0.656122,-1.82562 1.358517,-3.62684 1.556766,-4.00953 0.366061,-0.69443 1.391034,-1.9985 2.294748,-2.91411 0.450346,-0.45164 0.474772,-0.49791 0.428949,-1.05798 -0.03648,-0.54473 -0.138908,-0.71354 -1.472935,-2.20321 -1.649803,-1.85448 -2.921457,-3.81242 -3.895471,-5.97185 -1.163728,-2.55874 -1.250795,-2.73686 -1.31218,-2.69962 -0.1044,0.0529 0.215679,1.94762 0.510604,3.09139 0.567671,2.16449 1.684095,4.48949 3.097142,6.40362 l 0.870829,1.1933 -0.39855,0.34668 c -1.974117,1.7121 -3.698606,4.80492 -4.474444,7.97335 -0.410542,1.67667 -0.963508,3.18779 -1.373354,3.74083 -0.620926,0.82802 -2.589654,1.77033 -4.987889,2.38533 -1.128421,0.28559 -3.948819,0.81028 -6.751133,1.26097 -1.768729,0.28562 -1.977817,0.33898 -1.546317,0.44464 0.271245,0.0664 1.013448,0.13055 1.635408,0.15216 z m 17.16549,-21.75779 c 1.457301,-2.34768 3.063145,-5.71302 3.761815,-7.85574 0.605626,-1.88038 0.765877,-3.18555 0.560374,-4.38405 -0.256817,-1.49362 -0.814626,-2.37926 -3.459269,-5.52683 -1.25297,-1.48103 -2.461679,-2.98994 -2.693967,-3.35297 -0.418369,-0.66424 -1.035244,-2.20391 -1.376325,-3.44436 -0.165958,-0.61583 -0.193816,-0.66012 -0.701762,-0.90047 -0.489999,-0.24076 -0.6874,-0.23648 -2.644508,0.17399 -2.430924,0.50152 -4.762368,0.62385 -7.11951,0.38765 -2.797796,-0.27155 -2.995586,-0.28521 -2.994031,-0.21343 -0.0064,0.11682 1.794532,0.78703 2.932529,1.1035 2.158334,0.59065 4.73006,0.78628 7.094265,0.5196 l 1.468842,-0.15751 0.100958,0.5185 c 0.495665,2.56567 2.311887,5.60554 4.667905,7.86166 1.246772,1.19388 2.278958,2.42833 2.55298,3.05977 0.40662,0.95176 0.238326,3.12787 -0.428191,5.51231 -0.316874,1.12004 -1.272681,3.82492 -2.283528,6.47715 -0.637007,1.67456 -0.695351,1.88231 -0.38809,1.56146 0.193095,-0.20173 0.619775,-0.81241 0.949479,-1.34023 z"
         inkscape:transform-center-y="-32.333602"
         inkscape:transform-center-x="5.223721"
         style="fill:#7f03a8;stroke:none;stroke-width:0.0126927" />
      <path
         inkscape:connector-curvature="0"
         id="path832"
         d="m 74.987447,247.43581 c 5.595648,0.11261 9.514601,0.24868 10.531216,0.39502 0.703914,0.0783 1.349015,0.14085 1.434354,0.11643 0.237355,-0.0625 0.390023,-1.45559 0.261429,-2.15191 -0.10524,-0.54823 -0.188463,-0.64932 -0.841163,-0.91876 -1.400438,-0.59587 -4.556715,-3.04897 -6.382128,-4.94061 -2.808608,-2.92725 -4.442673,-4.12152 -6.879146,-5.0265 -2.748122,-1.03577 -5.388398,-1.23896 -7.732584,-0.60639 -0.563993,0.16406 -1.255595,0.45149 -1.543114,0.64235 -1.165831,0.82223 -2.56833,2.76295 -2.873798,4.0206 -0.145765,0.544 -0.134983,0.56265 0.10264,0.26387 2.361718,-2.99165 3.388118,-3.64639 5.92182,-3.6924 2.157187,-0.0523 5.895123,1.40626 7.707167,2.99491 0.48386,0.42905 1.687316,1.76007 2.675229,2.95454 0.977141,1.17583 2.246238,2.55594 2.795728,3.03412 1.011829,0.86994 1.011829,0.86994 0.542107,0.91742 -5.496465,0.57585 -6.257361,0.59258 -7.610038,0.23013 -1.132127,-0.30335 -1.494707,-0.47929 -2.516524,-1.19434 -1.726225,-1.20319 -1.810505,-1.24153 -1.353451,-0.53598 0.212384,0.32479 0.941973,1.07183 1.604096,1.65898 1.13522,0.99756 1.289074,1.0703 2.526817,1.44962 0.716512,0.20772 1.455597,0.39002 1.629153,0.38922 z"
         style="fill:#cc4878;stroke:none;stroke-width:0.01522165" />
      <path
         inkscape:connector-curvature="0"
         id="path830"
         d="m 76.996251,230.49589 c 2.895346,-4.78967 4.972658,-8.11554 5.607706,-8.92279 0.419765,-0.57045 0.796483,-1.09786 0.817999,-1.18396 0.06459,-0.2368 -1.065565,-1.06557 -1.73289,-1.30237 -0.527412,-0.18294 -0.656568,-0.16143 -1.216256,0.26908 -1.216253,0.91489 -4.918842,2.42175 -7.469753,3.05679 -3.939382,0.9687 -5.790672,1.7867 -7.792648,3.44427 -2.271064,1.86205 -3.767165,4.047 -4.391443,6.39341 -0.139912,0.57046 -0.236797,1.31313 -0.215267,1.65756 0.129163,1.42075 1.108622,3.60571 2.045042,4.49907 0.398237,0.39823 0.419778,0.39823 0.279828,0.0431 -1.409992,-3.54114 -1.463812,-4.7574 -0.236798,-6.97465 1.03328,-1.89433 4.165416,-4.40219 6.447242,-5.17714 0.613505,-0.20452 2.367928,-0.58123 3.896323,-0.83955 1.506868,-0.25831 3.336631,-0.66733 4.025486,-0.90411 1.259312,-0.44131 1.259312,-0.44131 1.065569,-0.0108 -2.249539,5.048 -2.615492,5.71532 -3.605717,6.70554 -0.828776,0.82878 -1.162433,1.05481 -2.292595,1.58221 -1.905106,0.89337 -1.980444,0.94718 -1.140899,0.90413 0.387472,-0.0215 1.399221,-0.27985 2.238764,-0.55969 1.431528,-0.48435 1.571443,-0.58123 2.518626,-1.46381 0.538152,-0.51665 1.065573,-1.06557 1.151651,-1.21627 z"
         style="fill:#f99640;stroke:none;stroke-width:0.01522165" />
      <path
         inkscape:connector-curvature="0"
         id="path828"
         d="m 63.330251,220.28626 c -2.700303,-4.90228 -4.541943,-8.36422 -4.92351,-9.31781 -0.284153,-0.64876 -0.552539,-1.23871 -0.61635,-1.3004 -0.172768,-0.17434 -1.455593,0.39003 -1.994329,0.84956 -0.422155,0.36524 -0.468094,0.48786 -0.375084,1.18784 0.184184,1.51075 -0.362122,5.47071 -1.087622,7.99738 -1.13078,3.89596 -1.348002,5.90823 -0.913505,8.47078 0.477058,2.89782 1.621233,5.28596 3.341141,6.9998 0.424073,0.40641 1.018804,0.86163 1.327846,1.01521 1.294994,0.59852 3.676957,0.84275 4.918836,0.47848 0.544001,-0.14577 0.554771,-0.16443 0.177207,-0.22083 -3.771715,-0.54947 -4.851931,-1.111 -6.158618,-3.28225 -1.123906,-1.84201 -1.729708,-5.80845 -1.259924,-8.17205 0.129635,-0.63356 0.680601,-2.34129 1.221099,-3.79409 0.529721,-1.43414 1.090387,-3.22326 1.229751,-3.93823 0.247478,-1.31124 0.247478,-1.31124 0.523467,-0.92819 3.246926,4.47216 3.641865,5.12275 4.004317,6.47542 0.303356,1.13213 0.332279,1.5341 0.223933,2.77655 -0.17888,2.09655 -0.169943,2.18871 0.212553,1.44011 0.175089,-0.34632 0.45724,-1.35168 0.634669,-2.21867 0.296304,-1.48192 0.282369,-1.65153 -0.0084,-2.9131 -0.178362,-0.72438 -0.390025,-1.4556 -0.477504,-1.6055 z"
         style="fill:#cc4878;stroke:none;stroke-width:0.01522165" />
      <path
         inkscape:connector-curvature="0"
         id="path826"
         d="m 47.655447,227.01655 c -5.595648,-0.11261 -9.514601,-0.24868 -10.531216,-0.39502 -0.703914,-0.0783 -1.349015,-0.14085 -1.434354,-0.11643 -0.237355,0.0625 -0.390023,1.45559 -0.261429,2.15191 0.10524,0.54823 0.188463,0.64932 0.841163,0.91876 1.400438,0.59587 4.556715,3.04897 6.382128,4.94061 2.808608,2.92725 4.442673,4.12152 6.879146,5.0265 2.748122,1.03577 5.388398,1.23896 7.732584,0.60639 0.563993,-0.16406 1.255595,-0.45149 1.543114,-0.64235 1.165831,-0.82223 2.56833,-2.76295 2.873798,-4.0206 0.145765,-0.544 0.134983,-0.56265 -0.10264,-0.26387 -2.361718,2.99165 -3.388118,3.64639 -5.92182,3.6924 -2.157187,0.0523 -5.895123,-1.40626 -7.707167,-2.99491 -0.48386,-0.42905 -1.687316,-1.76007 -2.675229,-2.95454 -0.977141,-1.17583 -2.246238,-2.55594 -2.795728,-3.03412 -1.011829,-0.86994 -1.011829,-0.86994 -0.542107,-0.91742 5.496465,-0.57585 6.257361,-0.59258 7.610038,-0.23013 1.132127,0.30335 1.494707,0.47929 2.516524,1.19434 1.726225,1.20319 1.810505,1.24153 1.353451,0.53598 -0.212384,-0.32479 -0.941973,-1.07183 -1.604096,-1.65898 -1.13522,-0.99756 -1.289074,-1.0703 -2.526817,-1.44962 -0.716512,-0.20772 -1.455597,-0.39002 -1.629153,-0.38922 z"
         style="fill:#f99640;stroke:none;stroke-width:0.01522165" />
      <path
         inkscape:connector-curvature="0"
         id="path824"
         d="m 45.646643,243.95647 c -2.895346,4.78967 -4.972658,8.11554 -5.607706,8.92279 -0.419765,0.57045 -0.796483,1.09786 -0.817999,1.18396 -0.06459,0.2368 1.065565,1.06557 1.73289,1.30237 0.527412,0.18294 0.656568,0.16143 1.216256,-0.26908 1.216253,-0.91489 4.918842,-2.42175 7.469753,-3.05679 3.939382,-0.9687 5.790672,-1.7867 7.792648,-3.44427 2.271064,-1.86205 3.767165,-4.047 4.391443,-6.39341 0.139912,-0.57046 0.236797,-1.31313 0.215267,-1.65756 -0.129163,-1.42075 -1.108622,-3.60571 -2.045042,-4.49907 -0.398237,-0.39823 -0.419778,-0.39823 -0.279828,-0.0431 1.409992,3.54114 1.463812,4.7574 0.236798,6.97465 -1.03328,1.89433 -4.165416,4.40219 -6.447242,5.17714 -0.613505,0.20452 -2.367928,0.58123 -3.896323,0.83955 -1.506868,0.25831 -3.336631,0.66733 -4.025486,0.90411 -1.259312,0.44131 -1.259312,0.44131 -1.065569,0.0108 2.249539,-5.048 2.615492,-5.71532 3.605717,-6.70554 0.828776,-0.82878 1.162433,-1.05481 2.292595,-1.58221 1.905106,-0.89337 1.980444,-0.94718 1.140899,-0.90413 -0.387472,0.0215 -1.399221,0.27985 -2.238764,0.55969 -1.431528,0.48435 -1.571443,0.58123 -2.518626,1.46381 -0.538152,0.51665 -1.065573,1.06557 -1.151651,1.21627 z"
         style="fill:#cc4878;stroke:none;stroke-width:0.01522165" />
      <path
         inkscape:connector-curvature="0"
         id="path102"
         d="m 59.312643,254.1661 c 2.700303,4.90228 4.541943,8.36422 4.92351,9.31781 0.284153,0.64876 0.552539,1.23871 0.61635,1.3004 0.172768,0.17434 1.455593,-0.39003 1.994329,-0.84956 0.422155,-0.36524 0.468094,-0.48786 0.375084,-1.18784 -0.184184,-1.51075 0.362122,-5.47071 1.087622,-7.99738 1.13078,-3.89596 1.348002,-5.90823 0.913505,-8.47078 -0.477058,-2.89782 -1.621233,-5.28596 -3.341141,-6.9998 -0.424073,-0.40641 -1.018804,-0.86163 -1.327846,-1.01521 -1.294994,-0.59852 -3.676957,-0.84275 -4.918836,-0.47848 -0.544001,0.14577 -0.554771,0.16443 -0.177207,0.22083 3.771715,0.54947 4.851931,1.111 6.158618,3.28225 1.123906,1.84201 1.729708,5.80845 1.259924,8.17205 -0.129635,0.63356 -0.680615,2.34129 -1.221099,3.79409 -0.529721,1.43414 -1.090387,3.22326 -1.229751,3.93823 -0.247478,1.31124 -0.247478,1.31124 -0.523458,0.92819 -3.246927,-4.47216 -3.641865,-5.12275 -4.004317,-6.47542 -0.303356,-1.13212 -0.332279,-1.5341 -0.223934,-2.77654 0.178881,-2.09656 0.169944,-2.18871 -0.212552,-1.44012 -0.175089,0.34633 -0.45724,1.35168 -0.634669,2.21867 -0.296305,1.48192 -0.282369,1.65153 0.0084,2.91311 0.178361,0.72438 0.390025,1.45559 0.477503,1.60549 z"
         style="fill:#f99640;stroke:none;stroke-width:0.01522165" />
    </g>
  </g>
</svg>
