<?xml version="1.0" encoding="UTF-8" standalone="no"?>
<!-- Created with Inkscape (http://www.inkscape.org/) -->

<svg
   width="151.60646mm"
   height="62.242058mm"
   viewBox="0 0 151.60647 62.242058"
   version="1.1"
   id="svg60"
   inkscape:version="1.4.3 (0d15f75042, 2025-12-25)"
   sodipodi:docname="librosa_logo_dark.svg"
   inkscape:export-filename="/home/bmcfee/git/librosa_media/logo/librosa_logo_simpler-text-rotated.png"
   inkscape:export-xdpi="90.130859"
   inkscape:export-ydpi="90.130859"
   xmlns:inkscape="http://www.inkscape.org/namespaces/inkscape"
   xmlns:sodipodi="http://sodipodi.sourceforge.net/DTD/sodipodi-0.dtd"
   xmlns="http://www.w3.org/2000/svg"
   xmlns:svg="http://www.w3.org/2000/svg"
   xmlns:rdf="http://www.w3.org/1999/02/22-rdf-syntax-ns#"
   xmlns:cc="http://creativecommons.org/ns#"
   xmlns:dc="http://purl.org/dc/elements/1.1/">
  <defs
     id="defs54">
    <inkscape:path-effect
       effect="copy_rotate"
       starting_point="75.8296,238.24069"
       origin="61.321447,237.22618"
       id="path-effect846"
       is_visible="true"
       copies_to_360="true"
       fuse_paths="false"
       starting_angle="-4.0000044"
       rotation_angle="60"
       num_copies="6" />
    <inkscape:path-effect
       effect="copy_rotate"
       starting_point="75.079604,237.22618"
       origin="61.321447,237.22618"
       id="path-effect844"
       is_visible="true"
       copies_to_360="true"
       fuse_paths="false"
       starting_angle="0"
       rotation_angle="60"
       num_copies="6" />
    <inkscape:path-effect
       effect="powerstroke"
       id="path-effect840"
       is_visible="true"
       offset_points="31,0.33051223"
       sort_points="true"
       interpolator_type="CubicBezierFit"
       interpolator_beta="0.2"
       start_linecap_type="butt"
       linejoin_type="extrp_arc"
       miter_limit="4"
       end_linecap_type="butt"
       message="" />
    <inkscape:path-effect
       effect="copy_rotate"
       starting_point="67.13018,237.14366"
       origin="60.938111,237.13401"
       id="path-effect836"
       is_visible="true"
       copies_to_360="true"
       fuse_paths="false"
       starting_angle="-0.089292258"
       rotation_angle="51.428571"
       num_copies="7" />
  </defs>
  <sodipodi:namedview
     id="base"
     pagecolor="#434343"
     bordercolor="#666666"
     borderopacity="1.0"
     inkscape:pageopacity="0.0"
     inkscape:pageshadow="2"
     inkscape:zoom="1.979899"
     inkscape:cx="274.76149"
     inkscape:cy="153.79572"
     inkscape:document-units="mm"
     inkscape:current-layer="layer1"
     showgrid="false"
     inkscape:pagecheckerboard="true"
     showguides="false"
     inkscape:guide-bbox="true"
     inkscape:snap-object-midpoints="true"
     fit-margin-top="0"
     fit-margin-left="0"
     fit-margin-right="0"
     fit-margin-bottom="0"
     inkscape:window-width="1920"
     inkscape:window-height="1015"
     inkscape:window-x="0"
     inkscape:window-y="0"
     inkscape:window-maximized="1"
     inkscape:showpageshadow="2"
     inkscape:deskcolor="#d1d1d1">
    <inkscape:grid
       type="axonomgrid"
       id="grid62"
       units="mm"
       empspacing="3"
       spacingy="1"
       gridanglex="30"
       gridanglez="30"
       originx="-30.27562"
       originy="-28.525277" />
    <sodipodi:guide
       position="30.346162,31.474726"
       orientation="0,1"
       id="guide68"
       inkscape:locked="false" />
    <sodipodi:guide
       position="29.480136,31.474726"
       orientation="1,0"
       id="guide149"
       inkscape:locked="false" />
  </sodipodi:namedview>
  <metadata
     id="metadata57">
    <rdf:RDF>
      <cc:Work
         rdf:about="">
        <dc:format>image/svg+xml</dc:format>
        <dc:type
           rdf:resource="http://purl.org/dc/dcmitype/StillImage" />
      </cc:Work>
    </rdf:RDF>
  </metadata>
  <g
     inkscape:label="Layer 1"
     inkscape:groupmode="layer"
     id="layer1"
     transform="translate(-30.275617,-206.23268)">
    <g
       id="text832"
       style="font-size:31.75px;line-height:1.25;font-family:Quicksand;-inkscape-font-specification:Quicksand;letter-spacing:0px;word-spacing:0px;fill:#4d02a2;stroke-width:0.264583"
       aria-label="librosa">
      <path
         style="font-family:'Nova Slim';-inkscape-font-specification:'Nova Slim';text-align:end;letter-spacing:-1.5875px;text-anchor:end;fill:#e76d5c"
         d="m 98.234473,249.55101 v -23.25439 l 2.945557,-1.39527 h 0.15503 v 23.2544 l -2.945558,1.39526 z m 7.946797,-21.09949 q -0.5426,-0.5581 -0.5426,-1.33325 0,-0.79065 0.5426,-1.34875 0.54261,-0.55811 1.31775,-0.55811 0.77515,0 1.31775,0.55811 0.5426,0.5581 0.5426,1.34875 0,0.77515 -0.5426,1.33325 -0.5426,0.55811 -1.31775,0.55811 -0.77514,0 -1.31775,-0.55811 z m -0.23254,21.09949 v -16.89819 l 2.94556,-1.39527 h 0.15503 v 16.8982 l -2.94556,1.39526 z m 10.81484,-5.45703 q 0,1.78284 0.96119,2.61999 0.97668,0.82166 2.37194,0.82166 1.39527,0 2.35645,-0.82166 0.97668,-0.83715 0.97668,-2.61999 v -7.3794 q 0,-1.78283 -0.97668,-2.60449 -0.96118,-0.83716 -2.35645,-0.83716 -1.39526,0 -2.37194,0.83716 -0.96119,0.82166 -0.96119,2.60449 z m -3.10058,-1.0542 v -16.74316 l 2.94555,-1.39527 h 0.15503 v 7.98401 q 1.17823,-1.31775 3.33313,-1.31775 2.68201,0 4.51136,1.75183 1.92236,1.86035 1.92236,4.44934 v 5.271 q 0,2.55798 -1.92236,4.44934 -1.79834,1.75183 -4.51136,1.75183 -2.682,0 -4.51135,-1.75183 -1.92236,-1.86035 -1.92236,-4.44934 z"
         id="path1" />
      <path
         style="font-family:'Nova Slim';-inkscape-font-specification:'Nova Slim';text-align:end;letter-spacing:-1.5875px;text-anchor:end;fill:#bc3687"
         d="m 129.5938,249.55101 v -11.78223 q 0,-2.55798 1.92236,-4.44934 1.79834,-1.75183 4.51135,-1.75183 h 2.0929 v 0.15503 l -0.74414,1.55029 h -1.34876 q -1.39526,0 -2.37194,0.83716 -0.96119,0.82166 -0.96119,2.60449 v 11.44117 l -2.94555,1.39526 z m 9.57461,-6.51123 v -5.271 q 0,-2.55798 1.92236,-4.44934 1.79834,-1.75183 4.51136,-1.75183 2.682,0 4.51135,1.75183 1.92236,1.86035 1.92236,4.44934 v 5.271 q 0,2.55798 -1.92236,4.44934 -1.79834,1.75183 -4.51135,1.75183 -2.68201,0 -4.51136,-1.75183 -1.92236,-1.86035 -1.92236,-4.44934 z m 3.10059,1.0542 q 0,1.78284 0.96118,2.61999 0.97668,0.82166 2.37195,0.82166 1.39526,0 2.35644,-0.82166 0.97669,-0.83715 0.97669,-2.61999 v -7.3794 q 0,-1.78283 -0.97669,-2.60449 -0.96118,-0.83716 -2.35644,-0.83716 -1.39527,0 -2.37195,0.83716 -0.96118,0.82166 -0.96118,2.60449 z m 12.36513,-0.63562 2.94556,-1.39526 h 0.15503 v 1.98437 q 0,1.73633 1.00769,2.6355 0.96118,0.85266 2.32544,0.85266 1.5813,0 2.46496,-1.00769 0.93018,-1.0387 0.93018,-2.99207 0,-1.78283 -0.99219,-2.55798 -0.85266,-0.66663 -2.41846,-0.66663 -2.99206,0 -4.46484,-1.19372 -1.30225,-1.0542 -1.30225,-2.88355 0,-2.1549 1.96888,-3.56567 1.53479,-1.10071 3.81372,-1.10071 2.18591,0 3.79821,1.36426 1.24024,1.0697 1.53479,2.48047 l -2.94555,1.39526 h -0.15503 v -1.19372 q 0,-0.77515 -0.46509,-1.37976 -0.74414,-0.96119 -2.1239,-0.96119 -1.10071,0 -1.79834,0.68213 -0.68213,0.69763 -0.68213,2.18592 0,1.56579 0.83716,2.1394 0.46509,0.32556 1.98437,0.32556 3.28662,0 4.92994,1.37976 1.51928,1.27124 1.51928,3.6742 0,2.01538 -1.78283,3.84472 -1.68982,1.73633 -4.65088,1.73633 -2.68201,0 -4.51136,-1.48828 -1.92236,-1.5658 -1.92236,-4.29431 z m 27.24795,4.69739 -2.94556,1.39526 h -0.15503 v -1.62781 q -1.24023,1.31775 -3.33313,1.31775 -2.89905,0 -4.51135,-1.75183 -1.6123,-1.75183 -1.6123,-4.13928 0,-2.48047 1.75183,-4.2168 1.68982,-1.67432 4.37182,-1.67432 1.90686,0 3.33313,1.31775 0,-2.74401 -0.96118,-4.12378 -0.96118,-1.37976 -2.37195,-1.37976 h -3.76721 v -0.15503 l 0.72864,-1.55029 h 3.03857 q 2.71302,0 4.51136,1.75183 1.92236,1.87586 1.92236,4.44934 z m -9.5188,-4.80591 q 0,2.41846 0.83716,3.31763 0.80615,0.86816 2.26343,0.86816 1.55029,0 2.35644,-0.88367 0.88367,-0.96118 0.88367,-3.37964 0,-2.26342 -0.94568,-3.22461 -0.93018,-0.88366 -2.30994,-0.88366 -1.44177,0 -2.26343,0.91467 -0.82165,0.91467 -0.82165,3.27112 z"
         id="path2" />
    </g>
    <path
       inkscape:connector-curvature="0"
       id="path133"
       d="m 87.508349,224.92741 c -0.148533,-2.75922 -0.75767,-6.43795 -1.411013,-8.59494 -0.579498,-1.8886 -1.195036,-3.0506 -2.049465,-3.91581 -1.065408,-1.07785 -2.029684,-1.48489 -5.99976,-2.5525 -1.875091,-0.49742 -3.729837,-1.04304 -4.128086,-1.20781 -0.723224,-0.30527 -2.110252,-1.21483 -3.099859,-2.03685 -0.488534,-0.41003 -0.536752,-0.43037 -1.090813,-0.33681 -0.539607,0.083 -0.699031,0.19948 -2.069035,1.65614 -1.706446,1.8025 -3.548317,3.2371 -5.616453,4.39239 -2.449718,1.37851 -2.619735,1.4805 -2.577383,1.53848 0.06193,0.0992 1.922019,-0.38163 3.036338,-0.77338 2.107949,-0.75088 4.328839,-2.06224 6.114978,-3.63397 l 1.114365,-0.96978 0.379514,0.36742 c 1.874801,1.82032 5.103907,3.2737 8.327123,3.77546 1.705661,0.2655 3.258578,0.68708 3.844671,1.04807 0.878131,0.54776 1.985519,2.4286 2.803564,4.76538 0.381145,1.09984 1.145349,3.86496 1.834294,6.6184 0.43598,1.73779 0.507031,1.94155 0.575375,1.50258 0.0429,-0.27593 0.0433,-1.0209 0.01161,-1.64244 z M 64.360953,209.68755 c -2.463832,-1.25096 -5.95427,-2.56283 -8.148944,-3.07551 -1.925326,-0.44243 -3.239423,-0.49036 -4.415925,-0.18301 -1.466154,0.38373 -2.300789,1.0153 -5.21041,3.9197 -1.368329,1.37516 -2.768219,2.70859 -3.110034,2.97111 -0.625981,0.47369 -2.107208,1.22011 -3.3139,1.66613 -0.599363,0.21807 -0.641104,0.24962 -0.83709,0.77627 -0.197942,0.50881 -0.176758,0.70512 0.399742,2.6199 0.707793,2.37907 1.029245,4.6915 0.995703,7.06019 -0.03105,2.81078 -0.02772,3.00901 0.04366,3.00131 0.116981,-0.004 0.630515,-1.85531 0.848406,-3.01622 0.403692,-2.20098 0.378467,-4.78001 -0.08962,-7.11271 l -0.282674,-1.44997 0.507949,-0.14497 c 2.513835,-0.71349 5.387057,-2.78327 7.433196,-5.32378 1.082761,-1.34439 2.22431,-2.47846 2.829991,-2.80554 0.913444,-0.4866 3.095987,-0.50521 5.528724,-0.0453 1.143051,0.21984 3.919826,0.94058 6.648845,1.72067 1.722959,0.49132 1.934945,0.53165 1.588961,0.25299 -0.217498,-0.17515 -0.862472,-0.54796 -1.416587,-0.83126 z M 39.58914,222.11384 c -2.315284,1.50824 -5.196612,3.87514 -6.737934,5.51943 -1.345817,1.44617 -2.044376,2.56024 -2.36646,3.7328 -0.400749,1.4616 -0.271105,2.5002 0.789358,6.4722 0.506755,1.87259 0.961602,3.75165 1.018039,4.17893 0.09724,0.77897 0.003,2.43494 -0.214035,3.70298 -0.110829,0.6281 -0.10438,0.68002 0.253726,1.11308 0.341679,0.42581 0.52227,0.50564 2.468774,0.96377 2.414223,0.57657 4.577565,1.45438 6.612154,2.66779 2.418678,1.43227 2.592014,1.52851 2.621042,1.46284 0.05533,-0.10308 -1.291494,-1.4737 -2.187929,-2.24285 -1.704242,-1.45012 -3.950371,-2.71777 -6.204592,-3.47874 l -1.397044,-0.48018 0.128425,-0.51239 c 0.639016,-2.53377 0.283144,-6.05696 -0.893926,-9.09923 -0.622901,-1.6099 -1.034259,-3.16555 -1.014679,-3.85361 0.03532,-1.03438 1.110463,-2.93381 2.725161,-4.81065 0.761905,-0.88 2.774474,-2.92439 4.814565,-4.89775 1.286964,-1.24646 1.427895,-1.40987 1.013575,-1.24958 -0.260415,0.10082 -0.905783,0.47296 -1.428189,0.81118 z m -1.624424,27.66617 c 0.148533,2.75922 0.75767,6.43795 1.411013,8.59494 0.579498,1.8886 1.195036,3.0506 2.049466,3.91581 1.065407,1.07785 2.029683,1.48489 5.999759,2.5525 1.875091,0.49742 3.729837,1.04304 4.128086,1.20781 0.723225,0.30527 2.110253,1.21483 3.099859,2.03685 0.488535,0.41003 0.536752,0.43037 1.090813,0.33681 0.539608,-0.083 0.699032,-0.19948 2.069035,-1.65614 1.706447,-1.80251 3.548317,-3.2371 5.616454,-4.39239 2.449717,-1.37851 2.619734,-1.4805 2.577383,-1.53848 -0.06193,-0.0992 -1.92202,0.38163 -3.036339,0.77338 -2.107949,0.75088 -4.328839,2.06224 -6.114977,3.63397 l -1.114366,0.96978 -0.379514,-0.36742 c -1.8748,-1.82032 -5.103906,-3.27371 -8.327123,-3.77546 -1.705661,-0.26551 -3.258578,-0.68708 -3.844671,-1.04807 -0.878131,-0.54776 -1.985518,-2.4286 -2.803564,-4.76538 -0.381144,-1.09984 -1.145349,-3.86497 -1.834293,-6.61841 -0.43598,-1.73778 -0.507032,-1.94154 -0.575376,-1.50257 -0.0429,0.27593 -0.0433,1.0209 -0.01161,1.64243 z m 23.147396,15.23986 c 2.463832,1.25096 5.95427,2.56283 8.148944,3.07551 1.925327,0.44243 3.239424,0.49036 4.415925,0.18301 1.466154,-0.38373 2.30079,-1.01531 5.21041,-3.9197 1.368329,-1.37516 2.76822,-2.7086 3.110035,-2.97112 0.62598,-0.47369 2.107207,-1.2201 3.313899,-1.66612 0.599363,-0.21807 0.641105,-0.24962 0.83709,-0.77627 0.197942,-0.50881 0.176759,-0.70512 -0.399741,-2.6199 -0.707793,-2.37907 -1.029246,-4.6915 -0.995704,-7.06019 0.03105,-2.81078 0.02772,-3.00901 -0.04366,-3.00131 -0.116981,0.004 -0.630515,1.85531 -0.848406,3.01622 -0.403692,2.20098 -0.378467,4.78001 0.08962,7.11271 l 0.282674,1.44997 -0.507948,0.14497 c -2.513835,0.71348 -5.387058,2.78326 -7.433196,5.32377 -1.082761,1.3444 -2.224311,2.47847 -2.829992,2.80555 -0.913444,0.4866 -3.095987,0.50521 -5.528723,0.0453 -1.143052,-0.21984 -3.919827,-0.94058 -6.648846,-1.72067 -1.722959,-0.49132 -1.934945,-0.53165 -1.58896,-0.25299 0.217497,0.17515 0.862472,0.54796 1.416586,0.83126 z m 24.771813,-12.42629 c 2.315285,-1.50824 5.196613,-3.87514 6.737934,-5.51944 1.345818,-1.44616 2.044377,-2.56023 2.36646,-3.73279 0.400749,-1.4616 0.271106,-2.5002 -0.789358,-6.4722 -0.506754,-1.87259 -0.961602,-3.75166 -1.018038,-4.17893 -0.09724,-0.77897 -0.0031,-2.43494 0.214034,-3.70298 0.110829,-0.6281 0.10438,-0.68002 -0.253726,-1.11308 -0.341678,-0.42582 -0.522269,-0.50564 -2.468774,-0.96377 -2.414223,-0.57657 -4.577565,-1.45438 -6.612154,-2.66779 -2.418677,-1.43227 -2.592013,-1.52851 -2.621042,-1.46284 -0.05533,0.10308 1.291495,1.4737 2.187929,2.24285 1.704242,1.45012 3.950372,2.71777 6.204592,3.47874 l 1.397045,0.48018 -0.128426,0.51239 c -0.639015,2.53377 -0.283143,6.05696 0.893927,9.09923 0.6229,1.6099 1.034258,3.16555 1.014678,3.85361 -0.03532,1.03438 -1.110462,2.93381 -2.725161,4.81065 -0.761904,0.88 -2.774473,2.92439 -4.814564,4.89775 -1.286965,1.24646 -1.427895,1.40987 -1.013576,1.24958 0.260416,-0.10082 0.905783,-0.47296 1.42819,-0.81118 z"
       inkscape:transform-center-y="-32.333602"
       inkscape:transform-center-x="5.223721"
       style="fill:#bc3687;stroke:none;stroke-width:0.0126927" />
    <path
       inkscape:connector-curvature="0"
       id="path832"
       d="m 70.783975,252.39481 c 5.019945,2.4747 8.511445,4.25967 9.37009,4.82328 0.604298,0.36939 1.16201,0.69958 1.249652,0.71365 0.241462,0.044 0.970434,-1.15288 1.149232,-1.83803 0.137154,-0.54113 0.104648,-0.66797 -0.372219,-1.18875 -1.015641,-1.13347 -2.83394,-4.69347 -3.685017,-7.18065 -1.30238,-3.84199 -2.275867,-5.61647 -4.098721,-7.4692 -2.04964,-2.10332 -4.354646,-3.40689 -6.745884,-3.828 -0.580346,-0.0906 -1.328573,-0.12352 -1.669894,-0.0726 -1.404482,0.25031 -3.497573,1.41322 -4.307498,2.42269 -0.362683,0.43086 -0.360826,0.45232 -0.01893,0.28249 3.40743,-1.70795 4.614616,-1.8657 6.928771,-0.83301 1.975832,0.86735 4.742622,3.77328 5.710067,5.98039 0.256279,0.59374 0.781799,2.30948 1.170014,3.81015 0.386363,1.47922 0.950516,3.26725 1.2454,3.93331 0.547484,1.21691 0.547484,1.21691 0.101947,1.06073 -5.222046,-1.80913 -5.918245,-2.11662 -6.989607,-3.01844 -0.896682,-0.75479 -1.150449,-1.06787 -1.772656,-2.14873 -1.053169,-1.82164 -1.11324,-1.8921 -0.998482,-1.05931 0.05463,0.3842 0.398612,1.37012 0.749296,2.18263 0.605118,1.38481 0.713613,1.51592 1.673732,2.38429 0.560829,0.49194 1.152881,0.97043 1.310401,1.0433 z"
       style="fill:#7f03a8;stroke:none;stroke-width:0.0152216" />
    <path
       inkscape:connector-curvature="0"
       id="path830"
       d="m 79.786236,237.90497 c 4.65312,-3.11005 7.944696,-5.24129 8.862123,-5.7031 0.622046,-0.33863 1.186857,-0.65654 1.242851,-0.7254 0.158906,-0.18706 -0.513197,-1.41686 -1.01715,-1.91428 -0.400079,-0.38932 -0.526169,-0.4246 -1.215599,-0.27203 -1.489437,0.31284 -5.481634,0.10753 -8.061139,-0.399 -3.978455,-0.7931 -6.001929,-0.83728 -8.517872,-0.185 -2.846348,0.72337 -5.127769,2.06779 -6.688088,3.9281 -0.368602,0.45731 -0.771258,1.08883 -0.897807,1.40989 -0.485461,1.34147 -0.524897,3.73559 -0.05564,4.94173 0.191803,0.52952 0.211311,0.53866 0.23515,0.15769 0.224582,-3.80491 0.691568,-4.92923 2.742987,-6.417 1.739037,-1.27746 5.639055,-2.22059 8.034189,-1.95486 0.642343,0.0749 2.39097,0.47767 3.884695,0.89181 1.474225,0.40501 3.304784,0.81045 4.029046,0.88811 1.327623,0.13431 1.327623,0.13431 0.969612,0.44205 -4.177784,3.61785 -4.792171,4.06703 -6.108848,4.54394 -1.102006,0.39916 -1.500025,0.46239 -2.747187,0.46081 -2.104172,0.001 -2.195219,0.018 -1.416631,0.33505 0.360031,0.14483 1.385868,0.33986 2.264859,0.44241 1.50184,0.16836 1.669634,0.13995 2.901688,-0.25773 0.706451,-0.23971 1.416866,-0.5132 1.558724,-0.61318 z"
       style="fill:#f99640;stroke:none;stroke-width:0.0152216" />
    <path
       inkscape:connector-curvature="0"
       id="path828"
       d="m 71.738794,222.86387 c -0.366827,-5.58475 -0.56675,-9.50096 -0.507968,-10.52637 0.01775,-0.70804 0.02484,-1.35613 -0.0068,-1.43906 -0.08254,-0.23115 -1.483641,-0.26398 -2.1664,-0.0762 -0.537196,0.15177 -0.630795,0.24334 -0.843371,0.91672 -0.473793,1.4463 -2.647686,4.80099 -4.376112,6.78164 -2.676084,3.04889 -3.726068,4.77919 -4.419158,7.2842 -0.796707,2.8267 -0.773123,5.47468 0.0578,7.7561 0.211733,0.54789 0.557325,1.21234 0.772086,1.48247 0.919022,1.09116 2.972685,2.32237 4.251852,2.51906 0.554485,0.0987 0.572151,0.0863 0.254126,-0.12486 -3.182861,-2.09694 -3.923054,-3.06353 -4.185785,-5.58399 -0.236802,-2.14478 0.896432,-5.99386 2.324123,-7.93525 0.386051,-0.51882 1.609157,-1.8318 2.714686,-2.91834 1.087856,-1.07421 2.354258,-2.45679 2.78364,-3.04521 0.78013,-1.08258 0.78013,-1.08258 0.867656,-0.61865 1.044258,5.427 1.126066,6.18367 0.880752,7.5624 -0.20532,1.15395 -0.349572,1.53026 -0.974529,2.60954 -1.050997,1.82289 -1.081981,1.91014 -0.418147,1.39436 0.305418,-0.2394 0.987248,-1.03026 1.515564,-1.74022 0.896722,-1.21646 0.956021,-1.37597 1.227627,-2.64181 0.145623,-0.73166 0.263988,-1.48364 0.248324,-1.65649 z"
       style="fill:#7f03a8;stroke:none;stroke-width:0.0152216" />
    <path
       inkscape:connector-curvature="0"
       id="path826"
       d="m 54.68909,222.31261 c -5.019945,-2.4747 -8.511445,-4.25967 -9.37009,-4.82328 -0.604298,-0.36939 -1.16201,-0.69958 -1.249652,-0.71365 -0.241462,-0.044 -0.970434,1.15288 -1.149232,1.83803 -0.137154,0.54113 -0.104648,0.66797 0.37222,1.18875 1.01564,1.13347 2.833939,4.69347 3.685016,7.18065 1.30238,3.84199 2.275867,5.61647 4.098721,7.4692 2.04964,2.10332 4.354647,3.40689 6.745884,3.828 0.580346,0.0906 1.328573,0.12352 1.669895,0.0726 1.404482,-0.25031 3.497572,-1.41322 4.307497,-2.42269 0.362683,-0.43086 0.360827,-0.45232 0.01893,-0.28249 -3.407429,1.70795 -4.614616,1.86569 -6.928771,0.833 -1.975831,-0.86734 -4.742622,-3.77327 -5.710067,-5.98038 -0.256279,-0.59374 -0.781799,-2.30948 -1.170014,-3.81015 -0.386363,-1.47923 -0.950515,-3.26725 -1.245399,-3.93331 -0.547484,-1.21691 -0.547484,-1.21691 -0.101948,-1.06073 5.222046,1.80913 5.918245,2.11662 6.989608,3.01844 0.896681,0.75478 1.150448,1.06787 1.772655,2.14873 1.053169,1.82164 1.11324,1.8921 0.998482,1.05931 -0.05463,-0.3842 -0.398612,-1.37012 -0.749296,-2.18263 -0.605118,-1.38481 -0.713612,-1.51592 -1.673731,-2.38429 -0.56083,-0.49194 -1.152882,-0.97043 -1.310402,-1.0433 z"
       style="fill:#f99640;stroke:none;stroke-width:0.0152216" />
    <path
       inkscape:connector-curvature="0"
       id="path824"
       d="m 45.686829,236.80245 c -4.653119,3.11005 -7.944695,5.24129 -8.862122,5.7031 -0.622047,0.33863 -1.186857,0.65654 -1.242852,0.72539 -0.158906,0.18707 0.513197,1.41687 1.01715,1.91429 0.400079,0.38931 0.52617,0.4246 1.215599,0.27203 1.489437,-0.31284 5.481634,-0.10753 8.06114,0.399 3.978454,0.7931 6.001928,0.83728 8.517871,0.185 2.846348,-0.72338 5.12777,-2.06779 6.688089,-3.9281 0.368601,-0.45731 0.771258,-1.08883 0.897807,-1.40989 0.48546,-1.34147 0.524897,-3.73559 0.05564,-4.94173 -0.191802,-0.52952 -0.211311,-0.53866 -0.23515,-0.15769 -0.224582,3.80491 -0.691567,4.92923 -2.742986,6.417 -1.739038,1.27746 -5.639056,2.22059 -8.03419,1.95486 -0.642343,-0.0749 -2.39097,-0.47767 -3.884695,-0.89181 -1.474224,-0.40501 -3.304784,-0.81045 -4.029046,-0.88811 -1.327623,-0.13431 -1.327623,-0.13431 -0.969611,-0.44205 4.177783,-3.61785 4.79217,-4.06703 6.108847,-4.54394 1.102006,-0.39916 1.500025,-0.46239 2.747188,-0.46081 2.104171,-0.001 2.195218,-0.018 1.41663,-0.33505 -0.36003,-0.14483 -1.385868,-0.33986 -2.264859,-0.44241 -1.50184,-0.16836 -1.669634,-0.13995 -2.901688,0.25773 -0.70645,0.23971 -1.416866,0.5132 -1.558723,0.61318 z"
       style="fill:#7f03a8;stroke:none;stroke-width:0.0152216" />
    <path
       inkscape:connector-curvature="0"
       id="path102"
       d="m 53.734271,251.84355 c 0.366827,5.58475 0.56675,9.50096 0.507968,10.52637 -0.01775,0.70804 -0.02484,1.35613 0.0068,1.43906 0.08254,0.23115 1.48364,0.26398 2.166399,0.0762 0.537196,-0.15177 0.630795,-0.24334 0.843371,-0.91672 0.473794,-1.44631 2.647687,-4.80099 4.376112,-6.78164 2.676084,-3.04889 3.726069,-4.77919 4.419158,-7.2842 0.796708,-2.8267 0.773123,-5.47468 -0.0578,-7.7561 -0.211732,-0.54789 -0.557324,-1.21234 -0.772086,-1.48247 -0.919021,-1.09116 -2.972685,-2.32237 -4.251852,-2.51906 -0.554485,-0.0986 -0.572151,-0.0863 -0.254125,0.12486 3.182861,2.09694 3.923054,3.06353 4.185785,5.58399 0.236802,2.14478 -0.896433,5.99386 -2.324124,7.93525 -0.38605,0.51882 -1.609169,1.83179 -2.714685,2.91834 -1.087856,1.07421 -2.354259,2.45679 -2.783641,3.04521 -0.78013,1.08258 -0.78013,1.08258 -0.867647,0.61865 -1.044259,-5.42699 -1.126067,-6.18367 -0.880752,-7.5624 0.205316,-1.15394 0.349572,-1.53025 0.974523,-2.60953 1.051002,-1.82289 1.081983,-1.91014 0.418153,-1.39437 -0.305423,0.23941 -0.987249,1.03027 -1.515565,1.74022 -0.896723,1.21646 -0.956021,1.37598 -1.22763,2.64182 -0.145625,0.73166 -0.263984,1.48364 -0.248322,1.65649 z"
       style="fill:#f99640;stroke:none;stroke-width:0.0152216" />
  </g>
</svg>
